<?xml version="1.0" encoding="UTF-8"?>
<svg id="Capa_1" data-name="Capa 1" xmlns="http://www.w3.org/2000/svg" version="1.1" viewBox="0 0 25.4 25.4">
  <defs>
    <style>
      .cls-1, .cls-2 {
        fill: #39a6b5;
        stroke-width: 0px;
      }

      .cls-2 {
        fill-rule: evenodd;
      }
    </style>
  </defs>
  <path class="cls-1" d="M12.6,2.3c5.9,0,10.7,4.8,10.7,10.7,0,5.9-4.8,10.7-10.7,10.7-5.9,0-10.7-4.8-10.7-10.7,0,0,0,0,0,0,0-5.9,4.8-10.6,10.7-10.6M12.6.6c-6.8,0-12.4,5.6-12.4,12.4,0,6.8,5.6,12.4,12.4,12.4s12.4-5.6,12.4-12.4c0,0,0,0,0,0,0-6.8-5.6-12.3-12.4-12.3Z"/>
  <path class="cls-2" d="M7.4,17.2c-.5-.1-.8-.5-1-.9-.4-1.2-.5-6.2.3-7.2.3-.3.7-.5,1.1-.6,2.2-.2,9.2-.2,10,.1.4.2.8.5.9,1,.5,2.2.5,4.6,0,6.8-.2.3-.4.6-.7.8-.9.4-9.5.4-10.6,0ZM11,14.9l4-2.1-4-2.1v4.2Z"/>
</svg>