<?xml version="1.0" encoding="UTF-8"?>
<svg id="Capa_1" data-name="Capa 1" xmlns="http://www.w3.org/2000/svg" version="1.1" viewBox="0 0 25.4 25.4">
  <defs>
    <style>
      .cls-1, .cls-2 {
        fill: #39a6b5;
        stroke-width: 0px;
      }

      .cls-2 {
        fill-rule: evenodd;
      }
    </style>
  </defs>
  <path class="cls-1" d="M12.7,2c5.9,0,10.7,4.8,10.7,10.7,0,5.9-4.8,10.7-10.7,10.7-5.9,0-10.7-4.8-10.7-10.7,0,0,0,0,0,0,0-5.9,4.8-10.6,10.7-10.6M12.7.3c-6.8,0-12.4,5.6-12.4,12.4,0,6.8,5.6,12.4,12.4,12.4,6.8,0,12.4-5.6,12.4-12.4,0,0,0,0,0,0,0-6.8-5.6-12.3-12.4-12.3Z"/>
  <path class="cls-2" d="M11.8,15.5h0c-.2,1.2-.6,2.3-1.1,3.4l-.9,1.3h-.1c-.1,0-.1-.1-.1-.2-.1-.5-.1-1.1,0-1.6,0-.9.1-1.1,1.1-5.6.1,0,0-.1,0-.1-.2-.7-.3-1.4-.1-2.1.5-1.5,2.2-1.6,2.5-.4s-.3,1.8-.7,3.3,1.2,2.1,2.4,1.2,1.6-2.8,1.5-4.2-3.2-3.4-5.2-2.5c-2,.9-2.7,3.8-1.7,5s.2.3.2.5-.1.5-.2.7-.2.3-.4.2c-.4-.2-.7-.4-.9-.7-1-1.5-1-3.4,0-4.9,1.2-1.9,3.5-2.9,5.7-2.5,2.2.1,4,1.7,4.4,3.9.3,1.7-.2,3.4-1.2,4.7-1.4,1.8-3.8,1.9-4.9.8l-.2-.2Z"/>
</svg>