<?xml version="1.0" encoding="UTF-8"?>
<svg id="Capa_1" data-name="Capa 1" xmlns="http://www.w3.org/2000/svg" version="1.1" viewBox="0 0 26.1 26.1">
  <defs>
    <style>
      .cls-1 {
        fill: #39a6b5;
        stroke-width: 0px;
      }
    </style>
  </defs>
  <path class="cls-1" d="M14.2,2.3c5.9.6,10.2,5.8,9.6,11.7-.5,5.1-4.5,9.1-9.6,9.6-5.9.6-11.1-3.7-11.7-9.6S6.3,2.9,12.1,2.3h2.1M13.2.6C6.4.6.8,6.1.7,12.9c-.1,6.8,5.5,12.5,12.3,12.5s12.5-5.4,12.5-12.3v-.2C25.5,6.1,20,.6,13.2.6h0Z"/>
  <g>
    <path class="cls-1" d="M7.9,10.2h2.5v8h-2.5v-8ZM9.1,6.1c.8,0,1.5.7,1.5,1.5s-.7,1.5-1.5,1.5-1.4-.7-1.4-1.5.6-1.4,1.4-1.5"/>
    <path class="cls-1" d="M12,10.2h2.4v1.1h0c.5-.9,1.4-1.4,2.4-1.3,2.5,0,3,1.6,3,3.8v4.4h-2.5v-3.9c0-.9,0-2.1-1.3-2.1s-1.5,1-1.5,2v4h-2.5v-8Z"/>
  </g>
</svg>