<?xml version="1.0" encoding="UTF-8"?>
<svg id="Capa_1" data-name="Capa 1" xmlns="http://www.w3.org/2000/svg" version="1.1" viewBox="0 0 25.4 25.4">
  <defs>
    <style>
      .cls-1 {
        fill: #39a6b5;
        stroke-width: 0px;
      }
    </style>
  </defs>
  <g id="_1Vd1GO" data-name="1Vd1GO">
    <g>
      <path class="cls-1" d="M12.7,23c-1.4,0-2.9,0-4.3,0-2.8,0-5.1-1.8-5.8-4.4-.1-.5-.2-1-.2-1.5,0-2.9,0-5.8,0-8.7,0-2.2,1-3.9,2.9-5.1,1-.6,2-.9,3.2-.9,2.9,0,5.7,0,8.6,0,2.3,0,4.1,1,5.3,3,.5.9.8,1.8.8,2.9,0,3,0,5.9,0,8.9,0,3.1-2.4,5.7-5.5,5.9-1.3,0-2.6,0-3.8,0-.3,0-.7,0-1,0ZM12.7,21.2c1.5,0,3,0,4.5,0,2.2,0,4-1.8,4-4,0-3,0-5.9,0-8.9,0-2.1-1.7-3.9-3.8-3.9-3.1,0-6.1,0-9.2,0-2.2,0-3.8,1.8-3.8,4,0,3,0,5.9,0,8.9,0,2.3,1.7,4,4,4,1.5,0,2.9,0,4.4,0Z"/>
      <path class="cls-1" d="M12.7,18.1c-2.9,0-5.4-2.4-5.4-5.3,0-3,2.4-5.4,5.3-5.4,3,0,5.4,2.4,5.4,5.3,0,3-2.4,5.4-5.4,5.4ZM12.7,16.2c1.9,0,3.5-1.6,3.5-3.5,0-1.9-1.6-3.5-3.5-3.5-1.9,0-3.5,1.6-3.5,3.5,0,1.9,1.6,3.5,3.5,3.5Z"/>
      <path class="cls-1" d="M18.2,8.4c-.7,0-1.3-.6-1.3-1.2,0-.7.6-1.3,1.3-1.3.7,0,1.3.6,1.3,1.2,0,.7-.6,1.3-1.3,1.3Z"/>
    </g>
  </g>
</svg>