<?xml version="1.0" encoding="UTF-8"?>
<svg id="Capa_1" data-name="Capa 1" xmlns="http://www.w3.org/2000/svg" version="1.1" viewBox="0 0 28 30">
  <defs>
    <style>
      .cls-1 {
        fill: #35a6b4;
      }

      .cls-1, .cls-2 {
        stroke-width: 0px;
      }

      .cls-2 {
        fill: #fff;
      }
    </style>
  </defs>
  <circle class="cls-1" cx="14.2" cy="16" r="12"/>
  <polygon class="cls-2" points="6.6 12.8 6.6 20.3 11.1 16.5 6.6 12.8"/>
  <path class="cls-2" d="M20.6,10.4H7.8c-.6,0-1.1.4-1.2,1l6,5,1,.8c.3.3.9.3,1.2,0l1.1-.9,5.9-4.9c0-.6-.6-1-1.2-1Z"/>
  <polygon class="cls-2" points="21.8 20.3 21.8 12.8 17.3 16.5 21.8 20.3"/>
  <path class="cls-2" d="M15.6,17.9l-.8.7c-.3.3-.9.3-1.2,0l-1.1-.9-.6-.5-4.9,4.1.8.2h12.8l.8-.2-4.9-4.1-.9.7Z"/>
</svg>