<?xml version="1.0" encoding="UTF-8"?>
<svg id="Capa_1" data-name="Capa 1" xmlns="http://www.w3.org/2000/svg" version="1.1" viewBox="0 0 29 26">
  <defs>
    <style>
      .cls-1 {
        fill: #35a6b4;
      }

      .cls-1, .cls-2 {
        stroke-width: 0px;
      }

      .cls-2 {
        fill: #fff;
      }
    </style>
  </defs>
  <circle class="cls-1" cx="15" cy="13" r="12"/>
  <path class="cls-2" d="M13.2,10.8c.2-.2.3-.4.4-.7.4-.9.3-1.1.3-1.1-.5-.8-1-1.5-1.6-2.1-.6-.6-1.3-1.1-2-1.5-.6-.2-1.2,0-1.6.4h0l-.3.3,4.8,4.7Z"/>
  <path class="cls-2" d="M22.8,17.9c-.4-.7-.9-1.4-1.5-2-.6-.6-1.3-1.1-2.1-1.5,0,0-.1-.2-1.1.2-.3,0-.5.3-.7.5l4.7,4.7.3-.3h0c.4-.4.6-1,.4-1.6Z"/>
  <path class="cls-2" d="M16.9,15.8c-.2.2-.4.3-.7.3-1,0-2-.6-2.7-1.3-.7-.7-1.8-2.8-1-3.4h.1l-4.6-4.7c-.4.6-.6,1.2-.7,1.9,0,0,0,3.9,4.2,8.2,4.3,4.3,7.8,4.2,8.2,4.2h0c.7,0,1.4-.3,1.9-.7l-4.6-4.6h-.1Z"/>
</svg>